<mxfile host="65bd71144e">
    <diagram name="Page-1" id="2v0eUFLStaLlqNolDhwN">
        <mxGraphModel dx="2181" dy="2363" grid="1" gridSize="10" guides="1" tooltips="1" connect="1" arrows="1" fold="1" page="1" pageScale="1" pageWidth="850" pageHeight="1100" math="0" shadow="0">
            <root>
                <mxCell id="0"/>
                <mxCell id="1" parent="0"/>
                <mxCell id="6" style="edgeStyle=none;html=1;entryX=0;entryY=0.5;entryDx=0;entryDy=0;endArrow=none;endFill=0;" edge="1" parent="1" source="zYnJllNE2WcuCVmlU4Ud-1" target="5">
                    <mxGeometry relative="1" as="geometry"/>
                </mxCell>
                <mxCell id="8" style="edgeStyle=none;html=1;endArrow=none;endFill=0;" edge="1" parent="1" source="zYnJllNE2WcuCVmlU4Ud-1" target="7">
                    <mxGeometry relative="1" as="geometry"/>
                </mxCell>
                <mxCell id="zYnJllNE2WcuCVmlU4Ud-1" value="TERRENO" style="rounded=0;whiteSpace=wrap;html=1;" parent="1" vertex="1">
                    <mxGeometry x="210" y="-590" width="120" height="60" as="geometry"/>
                </mxCell>
                <mxCell id="zYnJllNE2WcuCVmlU4Ud-2" value="PONTOS" style="rounded=0;whiteSpace=wrap;html=1;" parent="1" vertex="1">
                    <mxGeometry x="210" y="-320" width="120" height="60" as="geometry"/>
                </mxCell>
                <mxCell id="zYnJllNE2WcuCVmlU4Ud-3" value="" style="rhombus;whiteSpace=wrap;html=1;" parent="1" vertex="1">
                    <mxGeometry x="245" y="-450" width="50" height="50" as="geometry"/>
                </mxCell>
                <mxCell id="zYnJllNE2WcuCVmlU4Ud-8" style="rounded=0;orthogonalLoop=1;jettySize=auto;html=1;endArrow=ERzeroToMany;endFill=0;entryX=0.5;entryY=0;entryDx=0;entryDy=0;exitX=0.5;exitY=1;exitDx=0;exitDy=0;" parent="1" source="zYnJllNE2WcuCVmlU4Ud-3" target="zYnJllNE2WcuCVmlU4Ud-2" edge="1">
                    <mxGeometry relative="1" as="geometry">
                        <mxPoint x="140" y="120" as="sourcePoint"/>
                        <mxPoint x="140" y="20" as="targetPoint"/>
                    </mxGeometry>
                </mxCell>
                <mxCell id="zYnJllNE2WcuCVmlU4Ud-9" style="rounded=0;orthogonalLoop=1;jettySize=auto;html=1;entryX=0.5;entryY=1;entryDx=0;entryDy=0;endArrow=ERmandOne;endFill=0;exitX=0.5;exitY=0;exitDx=0;exitDy=0;" parent="1" source="zYnJllNE2WcuCVmlU4Ud-3" target="zYnJllNE2WcuCVmlU4Ud-1" edge="1">
                    <mxGeometry relative="1" as="geometry">
                        <mxPoint x="50" y="-440" as="sourcePoint"/>
                        <mxPoint x="50" y="-360" as="targetPoint"/>
                    </mxGeometry>
                </mxCell>
                <mxCell id="zYnJllNE2WcuCVmlU4Ud-10" style="rounded=0;orthogonalLoop=1;jettySize=auto;html=1;endArrow=ERzeroToMany;endFill=0;entryX=0.5;entryY=0;entryDx=0;entryDy=0;exitX=0.5;exitY=1;exitDx=0;exitDy=0;" parent="1" source="zYnJllNE2WcuCVmlU4Ud-11" target="zYnJllNE2WcuCVmlU4Ud-1" edge="1">
                    <mxGeometry relative="1" as="geometry">
                        <mxPoint x="260" y="-640" as="sourcePoint"/>
                        <mxPoint x="89.38" y="-640" as="targetPoint"/>
                    </mxGeometry>
                </mxCell>
                <mxCell id="zYnJllNE2WcuCVmlU4Ud-11" value="" style="rhombus;whiteSpace=wrap;html=1;" parent="1" vertex="1">
                    <mxGeometry x="245" y="-710" width="50" height="50" as="geometry"/>
                </mxCell>
                <mxCell id="3" style="edgeStyle=none;html=1;entryX=0;entryY=0.5;entryDx=0;entryDy=0;endArrow=none;endFill=0;" edge="1" parent="1" source="zYnJllNE2WcuCVmlU4Ud-13" target="2">
                    <mxGeometry relative="1" as="geometry"/>
                </mxCell>
                <mxCell id="zYnJllNE2WcuCVmlU4Ud-13" value="TIPO_TERRENO" style="rounded=0;whiteSpace=wrap;html=1;" parent="1" vertex="1">
                    <mxGeometry x="200" y="-850" width="140" height="60" as="geometry"/>
                </mxCell>
                <mxCell id="zYnJllNE2WcuCVmlU4Ud-14" style="rounded=0;orthogonalLoop=1;jettySize=auto;html=1;endArrow=ERmandOne;endFill=0;exitX=0.5;exitY=0;exitDx=0;exitDy=0;" parent="1" source="zYnJllNE2WcuCVmlU4Ud-11" target="zYnJllNE2WcuCVmlU4Ud-13" edge="1">
                    <mxGeometry relative="1" as="geometry">
                        <mxPoint x="280" y="-410" as="sourcePoint"/>
                        <mxPoint x="280" y="-500" as="targetPoint"/>
                    </mxGeometry>
                </mxCell>
                <mxCell id="zYnJllNE2WcuCVmlU4Ud-15" value="" style="rhombus;whiteSpace=wrap;html=1;" parent="1" vertex="1">
                    <mxGeometry x="250" y="-445" width="40" height="40" as="geometry"/>
                </mxCell>
                <mxCell id="zYnJllNE2WcuCVmlU4Ud-16" value="RIO" style="rounded=0;whiteSpace=wrap;html=1;fillColor=#f8cecc;strokeColor=#b85450;" parent="1" vertex="1">
                    <mxGeometry x="-110" y="-320" width="120" height="60" as="geometry"/>
                </mxCell>
                <mxCell id="zYnJllNE2WcuCVmlU4Ud-59" value="" style="edgeStyle=orthogonalEdgeStyle;rounded=0;orthogonalLoop=1;jettySize=auto;html=1;" parent="1" source="zYnJllNE2WcuCVmlU4Ud-17" target="zYnJllNE2WcuCVmlU4Ud-57" edge="1">
                    <mxGeometry relative="1" as="geometry"/>
                </mxCell>
                <mxCell id="zYnJllNE2WcuCVmlU4Ud-17" value="CONFIG" style="rounded=0;whiteSpace=wrap;html=1;" parent="1" vertex="1">
                    <mxGeometry x="-375" y="-315" width="130" height="50" as="geometry"/>
                </mxCell>
                <mxCell id="zYnJllNE2WcuCVmlU4Ud-18" value="OBJECTO_MOVEL" style="rounded=0;whiteSpace=wrap;html=1;" parent="1" vertex="1">
                    <mxGeometry x="-370" y="-540" width="120" height="60" as="geometry"/>
                </mxCell>
                <mxCell id="zYnJllNE2WcuCVmlU4Ud-20" style="rounded=0;orthogonalLoop=1;jettySize=auto;html=1;entryX=1;entryY=0.5;entryDx=0;entryDy=0;endArrow=ERmandOne;endFill=0;fillColor=#f8cecc;strokeColor=#b85450;" parent="1" source="zYnJllNE2WcuCVmlU4Ud-22" target="zYnJllNE2WcuCVmlU4Ud-16" edge="1">
                    <mxGeometry relative="1" as="geometry">
                        <mxPoint x="80" y="-290" as="sourcePoint"/>
                        <mxPoint x="280" y="-520" as="targetPoint"/>
                    </mxGeometry>
                </mxCell>
                <mxCell id="zYnJllNE2WcuCVmlU4Ud-22" value="" style="rhombus;whiteSpace=wrap;html=1;fillColor=#f8cecc;strokeColor=#b85450;" parent="1" vertex="1">
                    <mxGeometry x="80" y="-315" width="50" height="50" as="geometry"/>
                </mxCell>
                <mxCell id="zYnJllNE2WcuCVmlU4Ud-24" style="rounded=0;orthogonalLoop=1;jettySize=auto;html=1;endArrow=ERzeroToMany;endFill=0;entryX=0;entryY=0.5;entryDx=0;entryDy=0;exitX=1;exitY=0.5;exitDx=0;exitDy=0;fillColor=#f8cecc;strokeColor=#b85450;" parent="1" source="zYnJllNE2WcuCVmlU4Ud-22" target="zYnJllNE2WcuCVmlU4Ud-2" edge="1">
                    <mxGeometry relative="1" as="geometry">
                        <mxPoint x="280" y="-390" as="sourcePoint"/>
                        <mxPoint x="280" y="-310" as="targetPoint"/>
                    </mxGeometry>
                </mxCell>
                <mxCell id="zYnJllNE2WcuCVmlU4Ud-26" value="" style="rhombus;whiteSpace=wrap;html=1;fillColor=#f8cecc;strokeColor=#b85450;" parent="1" vertex="1">
                    <mxGeometry x="85" y="-310" width="40" height="40" as="geometry"/>
                </mxCell>
                <mxCell id="zYnJllNE2WcuCVmlU4Ud-27" value="" style="rhombus;whiteSpace=wrap;html=1;" parent="1" vertex="1">
                    <mxGeometry x="-335" y="-420" width="50" height="50" as="geometry"/>
                </mxCell>
                <mxCell id="zYnJllNE2WcuCVmlU4Ud-28" style="rounded=0;orthogonalLoop=1;jettySize=auto;html=1;endArrow=ERmandOne;endFill=0;" parent="1" source="zYnJllNE2WcuCVmlU4Ud-27" target="zYnJllNE2WcuCVmlU4Ud-17" edge="1">
                    <mxGeometry relative="1" as="geometry">
                        <mxPoint x="-171.25" y="-390" as="sourcePoint"/>
                        <mxPoint x="-310" y="-500" as="targetPoint"/>
                    </mxGeometry>
                </mxCell>
                <mxCell id="zYnJllNE2WcuCVmlU4Ud-29" style="rounded=0;orthogonalLoop=1;jettySize=auto;html=1;endArrow=ERzeroToMany;endFill=0;entryX=0.5;entryY=1;entryDx=0;entryDy=0;exitX=0.5;exitY=0;exitDx=0;exitDy=0;" parent="1" source="zYnJllNE2WcuCVmlU4Ud-27" target="zYnJllNE2WcuCVmlU4Ud-18" edge="1">
                    <mxGeometry relative="1" as="geometry">
                        <mxPoint x="280" y="-650" as="sourcePoint"/>
                        <mxPoint x="280" y="-580" as="targetPoint"/>
                    </mxGeometry>
                </mxCell>
                <mxCell id="zYnJllNE2WcuCVmlU4Ud-30" value="CINEMATICA" style="rounded=0;whiteSpace=wrap;html=1;" parent="1" vertex="1">
                    <mxGeometry x="-370" y="-770" width="120" height="60" as="geometry"/>
                </mxCell>
                <mxCell id="zYnJllNE2WcuCVmlU4Ud-31" value="CINEMATICA_HIST" style="rounded=0;whiteSpace=wrap;html=1;" parent="1" vertex="1">
                    <mxGeometry x="-650" y="-770" width="120" height="60" as="geometry"/>
                </mxCell>
                <mxCell id="zYnJllNE2WcuCVmlU4Ud-33" value="" style="rhombus;whiteSpace=wrap;html=1;" parent="1" vertex="1">
                    <mxGeometry x="-335" y="-660" width="50" height="50" as="geometry"/>
                </mxCell>
                <mxCell id="zYnJllNE2WcuCVmlU4Ud-34" value="" style="rhombus;whiteSpace=wrap;html=1;" parent="1" vertex="1">
                    <mxGeometry x="-475" y="-765" width="50" height="50" as="geometry"/>
                </mxCell>
                <mxCell id="zYnJllNE2WcuCVmlU4Ud-35" style="rounded=0;orthogonalLoop=1;jettySize=auto;html=1;endArrow=ERmandOne;endFill=0;exitX=0.5;exitY=1;exitDx=0;exitDy=0;entryX=0.5;entryY=0;entryDx=0;entryDy=0;" parent="1" source="zYnJllNE2WcuCVmlU4Ud-33" target="zYnJllNE2WcuCVmlU4Ud-18" edge="1">
                    <mxGeometry relative="1" as="geometry">
                        <mxPoint x="-170" y="-630" as="sourcePoint"/>
                        <mxPoint x="-170" y="-575" as="targetPoint"/>
                    </mxGeometry>
                </mxCell>
                <mxCell id="zYnJllNE2WcuCVmlU4Ud-36" style="rounded=0;orthogonalLoop=1;jettySize=auto;html=1;endArrow=ERmandOne;endFill=0;exitX=0.5;exitY=0;exitDx=0;exitDy=0;entryX=0.5;entryY=1;entryDx=0;entryDy=0;" parent="1" source="zYnJllNE2WcuCVmlU4Ud-33" target="zYnJllNE2WcuCVmlU4Ud-30" edge="1">
                    <mxGeometry relative="1" as="geometry">
                        <mxPoint x="-300" y="-600" as="sourcePoint"/>
                        <mxPoint x="-300" y="-550" as="targetPoint"/>
                    </mxGeometry>
                </mxCell>
                <mxCell id="zYnJllNE2WcuCVmlU4Ud-37" style="rounded=0;orthogonalLoop=1;jettySize=auto;html=1;endArrow=ERzeroToMany;endFill=0;entryX=0;entryY=0.5;entryDx=0;entryDy=0;exitX=1;exitY=0.5;exitDx=0;exitDy=0;" parent="1" source="zYnJllNE2WcuCVmlU4Ud-34" target="zYnJllNE2WcuCVmlU4Ud-30" edge="1">
                    <mxGeometry relative="1" as="geometry">
                        <mxPoint x="-470" y="-640" as="sourcePoint"/>
                        <mxPoint x="-470" y="-570" as="targetPoint"/>
                    </mxGeometry>
                </mxCell>
                <mxCell id="zYnJllNE2WcuCVmlU4Ud-38" style="rounded=0;orthogonalLoop=1;jettySize=auto;html=1;endArrow=ERmandOne;endFill=0;exitX=0;exitY=0.5;exitDx=0;exitDy=0;entryX=1;entryY=0.5;entryDx=0;entryDy=0;" parent="1" source="zYnJllNE2WcuCVmlU4Ud-34" target="zYnJllNE2WcuCVmlU4Ud-31" edge="1">
                    <mxGeometry relative="1" as="geometry">
                        <mxPoint x="-300" y="-650" as="sourcePoint"/>
                        <mxPoint x="-300" y="-700" as="targetPoint"/>
                    </mxGeometry>
                </mxCell>
                <mxCell id="zYnJllNE2WcuCVmlU4Ud-39" value="&lt;u&gt;id_tipo_terrreno&lt;/u&gt;" style="ellipse;whiteSpace=wrap;html=1;" parent="1" vertex="1">
                    <mxGeometry x="40" y="-840" width="110" height="40" as="geometry"/>
                </mxCell>
                <mxCell id="zYnJllNE2WcuCVmlU4Ud-40" style="rounded=0;orthogonalLoop=1;jettySize=auto;html=1;entryX=0;entryY=0.5;entryDx=0;entryDy=0;endArrow=none;endFill=0;exitX=1;exitY=0.5;exitDx=0;exitDy=0;" parent="1" source="zYnJllNE2WcuCVmlU4Ud-39" target="zYnJllNE2WcuCVmlU4Ud-13" edge="1">
                    <mxGeometry relative="1" as="geometry">
                        <mxPoint x="-266" y="-74" as="sourcePoint"/>
                        <mxPoint x="-210" y="-40" as="targetPoint"/>
                    </mxGeometry>
                </mxCell>
                <mxCell id="zYnJllNE2WcuCVmlU4Ud-41" value="&lt;u&gt;id_terrreno&lt;/u&gt;" style="ellipse;whiteSpace=wrap;html=1;" parent="1" vertex="1">
                    <mxGeometry x="60" y="-580" width="90" height="40" as="geometry"/>
                </mxCell>
                <mxCell id="zYnJllNE2WcuCVmlU4Ud-42" style="rounded=0;orthogonalLoop=1;jettySize=auto;html=1;entryX=0;entryY=0.5;entryDx=0;entryDy=0;endArrow=none;endFill=0;exitX=1;exitY=0.5;exitDx=0;exitDy=0;" parent="1" source="zYnJllNE2WcuCVmlU4Ud-41" target="zYnJllNE2WcuCVmlU4Ud-1" edge="1">
                    <mxGeometry relative="1" as="geometry">
                        <mxPoint x="160" y="-810" as="sourcePoint"/>
                        <mxPoint x="210" y="-810" as="targetPoint"/>
                    </mxGeometry>
                </mxCell>
                <mxCell id="zYnJllNE2WcuCVmlU4Ud-43" value="geo_terreno" style="ellipse;whiteSpace=wrap;html=1;" parent="1" vertex="1">
                    <mxGeometry x="370" y="-585" width="80" height="50" as="geometry"/>
                </mxCell>
                <mxCell id="zYnJllNE2WcuCVmlU4Ud-44" style="rounded=0;orthogonalLoop=1;jettySize=auto;html=1;entryX=1;entryY=0.5;entryDx=0;entryDy=0;endArrow=none;endFill=0;exitX=0;exitY=0.5;exitDx=0;exitDy=0;" parent="1" source="zYnJllNE2WcuCVmlU4Ud-43" target="zYnJllNE2WcuCVmlU4Ud-1" edge="1">
                    <mxGeometry relative="1" as="geometry">
                        <mxPoint x="160" y="-550" as="sourcePoint"/>
                        <mxPoint x="220" y="-550" as="targetPoint"/>
                    </mxGeometry>
                </mxCell>
                <mxCell id="zYnJllNE2WcuCVmlU4Ud-45" value="&lt;u&gt;id_ordem&lt;/u&gt;" style="ellipse;whiteSpace=wrap;html=1;" parent="1" vertex="1">
                    <mxGeometry x="380" y="-310" width="90" height="40" as="geometry"/>
                </mxCell>
                <mxCell id="zYnJllNE2WcuCVmlU4Ud-46" style="rounded=0;orthogonalLoop=1;jettySize=auto;html=1;endArrow=none;endFill=0;exitX=1;exitY=0.5;exitDx=0;exitDy=0;entryX=0;entryY=0.5;entryDx=0;entryDy=0;" parent="1" source="zYnJllNE2WcuCVmlU4Ud-2" target="zYnJllNE2WcuCVmlU4Ud-45" edge="1">
                    <mxGeometry relative="1" as="geometry">
                        <mxPoint x="380" y="-550" as="sourcePoint"/>
                        <mxPoint x="380" y="-410" as="targetPoint"/>
                    </mxGeometry>
                </mxCell>
                <mxCell id="zYnJllNE2WcuCVmlU4Ud-48" value="geo_ponto" style="ellipse;whiteSpace=wrap;html=1;" parent="1" vertex="1">
                    <mxGeometry x="230" y="-220" width="80" height="50" as="geometry"/>
                </mxCell>
                <mxCell id="zYnJllNE2WcuCVmlU4Ud-49" style="rounded=0;orthogonalLoop=1;jettySize=auto;html=1;entryX=0.5;entryY=1;entryDx=0;entryDy=0;endArrow=none;endFill=0;" parent="1" source="zYnJllNE2WcuCVmlU4Ud-48" target="zYnJllNE2WcuCVmlU4Ud-2" edge="1">
                    <mxGeometry relative="1" as="geometry">
                        <mxPoint x="380" y="-550" as="sourcePoint"/>
                        <mxPoint x="340" y="-550" as="targetPoint"/>
                    </mxGeometry>
                </mxCell>
                <mxCell id="zYnJllNE2WcuCVmlU4Ud-50" value="&lt;u&gt;id_rio&lt;/u&gt;" style="ellipse;whiteSpace=wrap;html=1;fillColor=#f8cecc;strokeColor=#b85450;" parent="1" vertex="1">
                    <mxGeometry x="-95" y="-415" width="90" height="40" as="geometry"/>
                </mxCell>
                <mxCell id="zYnJllNE2WcuCVmlU4Ud-51" style="rounded=0;orthogonalLoop=1;jettySize=auto;html=1;entryX=0.5;entryY=0;entryDx=0;entryDy=0;endArrow=none;endFill=0;exitX=0.5;exitY=1;exitDx=0;exitDy=0;fillColor=#f8cecc;strokeColor=#b85450;" parent="1" source="zYnJllNE2WcuCVmlU4Ud-50" target="zYnJllNE2WcuCVmlU4Ud-16" edge="1">
                    <mxGeometry relative="1" as="geometry">
                        <mxPoint x="-50" y="-370" as="sourcePoint"/>
                        <mxPoint x="220" y="-550" as="targetPoint"/>
                    </mxGeometry>
                </mxCell>
                <mxCell id="zYnJllNE2WcuCVmlU4Ud-52" value="geo_rio" style="ellipse;whiteSpace=wrap;html=1;fillColor=#f8cecc;strokeColor=#b85450;" parent="1" vertex="1">
                    <mxGeometry x="-90" y="-210" width="80" height="50" as="geometry"/>
                </mxCell>
                <mxCell id="zYnJllNE2WcuCVmlU4Ud-54" style="rounded=0;orthogonalLoop=1;jettySize=auto;html=1;entryX=0.5;entryY=1;entryDx=0;entryDy=0;endArrow=none;endFill=0;exitX=0.5;exitY=0;exitDx=0;exitDy=0;fillColor=#f8cecc;strokeColor=#b85450;" parent="1" source="zYnJllNE2WcuCVmlU4Ud-52" target="zYnJllNE2WcuCVmlU4Ud-16" edge="1">
                    <mxGeometry relative="1" as="geometry">
                        <mxPoint x="-40" y="-365" as="sourcePoint"/>
                        <mxPoint x="-40" y="-310" as="targetPoint"/>
                    </mxGeometry>
                </mxCell>
                <mxCell id="zYnJllNE2WcuCVmlU4Ud-55" value="&lt;u&gt;id_objecto&lt;/u&gt;" style="ellipse;whiteSpace=wrap;html=1;" parent="1" vertex="1">
                    <mxGeometry x="-210" y="-530" width="90" height="40" as="geometry"/>
                </mxCell>
                <mxCell id="zYnJllNE2WcuCVmlU4Ud-56" style="rounded=0;orthogonalLoop=1;jettySize=auto;html=1;entryX=1;entryY=0.5;entryDx=0;entryDy=0;endArrow=none;endFill=0;exitX=0;exitY=0.5;exitDx=0;exitDy=0;" parent="1" source="zYnJllNE2WcuCVmlU4Ud-55" target="zYnJllNE2WcuCVmlU4Ud-18" edge="1">
                    <mxGeometry relative="1" as="geometry">
                        <mxPoint x="160" y="-550" as="sourcePoint"/>
                        <mxPoint x="220" y="-550" as="targetPoint"/>
                    </mxGeometry>
                </mxCell>
                <mxCell id="zYnJllNE2WcuCVmlU4Ud-57" value="&lt;u&gt;id_config&lt;/u&gt;" style="ellipse;whiteSpace=wrap;html=1;" parent="1" vertex="1">
                    <mxGeometry x="-515" y="-310" width="90" height="40" as="geometry"/>
                </mxCell>
                <mxCell id="zYnJllNE2WcuCVmlU4Ud-58" style="rounded=0;orthogonalLoop=1;jettySize=auto;html=1;entryX=1;entryY=0.5;entryDx=0;entryDy=0;endArrow=none;endFill=0;exitX=0.038;exitY=0.5;exitDx=0;exitDy=0;exitPerimeter=0;" parent="1" source="zYnJllNE2WcuCVmlU4Ud-17" target="zYnJllNE2WcuCVmlU4Ud-57" edge="1">
                    <mxGeometry relative="1" as="geometry">
                        <mxPoint x="-380" y="-290" as="sourcePoint"/>
                        <mxPoint x="-240" y="-500" as="targetPoint"/>
                    </mxGeometry>
                </mxCell>
                <mxCell id="zYnJllNE2WcuCVmlU4Ud-60" value="nome" style="ellipse;whiteSpace=wrap;html=1;" parent="1" vertex="1">
                    <mxGeometry x="-500" y="-575" width="80" height="50" as="geometry"/>
                </mxCell>
                <mxCell id="zYnJllNE2WcuCVmlU4Ud-61" style="rounded=0;orthogonalLoop=1;jettySize=auto;html=1;entryX=1;entryY=0.5;entryDx=0;entryDy=0;endArrow=none;endFill=0;exitX=0;exitY=0;exitDx=0;exitDy=0;" parent="1" source="zYnJllNE2WcuCVmlU4Ud-18" target="zYnJllNE2WcuCVmlU4Ud-60" edge="1">
                    <mxGeometry relative="1" as="geometry">
                        <mxPoint x="-200" y="-500" as="sourcePoint"/>
                        <mxPoint x="-240" y="-500" as="targetPoint"/>
                    </mxGeometry>
                </mxCell>
                <mxCell id="zYnJllNE2WcuCVmlU4Ud-62" value="g_objecto" style="ellipse;whiteSpace=wrap;html=1;" parent="1" vertex="1">
                    <mxGeometry x="-500" y="-480" width="80" height="50" as="geometry"/>
                </mxCell>
                <mxCell id="zYnJllNE2WcuCVmlU4Ud-63" style="rounded=0;orthogonalLoop=1;jettySize=auto;html=1;entryX=1;entryY=0.5;entryDx=0;entryDy=0;endArrow=none;endFill=0;exitX=0;exitY=1;exitDx=0;exitDy=0;" parent="1" source="zYnJllNE2WcuCVmlU4Ud-18" target="zYnJllNE2WcuCVmlU4Ud-62" edge="1">
                    <mxGeometry relative="1" as="geometry">
                        <mxPoint x="-360" y="-500" as="sourcePoint"/>
                        <mxPoint x="-410" y="-540" as="targetPoint"/>
                    </mxGeometry>
                </mxCell>
                <mxCell id="2" value="nome" style="ellipse;whiteSpace=wrap;html=1;" vertex="1" parent="1">
                    <mxGeometry x="380" y="-860" width="110" height="40" as="geometry"/>
                </mxCell>
                <mxCell id="5" value="atrito" style="ellipse;whiteSpace=wrap;html=1;" vertex="1" parent="1">
                    <mxGeometry x="370" y="-525" width="80" height="50" as="geometry"/>
                </mxCell>
                <mxCell id="7" value="profundidade" style="ellipse;whiteSpace=wrap;html=1;" vertex="1" parent="1">
                    <mxGeometry x="360" y="-660" width="80" height="50" as="geometry"/>
                </mxCell>
            </root>
        </mxGraphModel>
    </diagram>
</mxfile>